{
  "accessors": [
    {
      "bufferView": 2,
      "componentType": 5126,
      "count": 1817,
      "max": [
        171.95697021484375,
        469.14410400390625,
        181.56204223632813
      ],
      "min": [
        -147.8962860107422,
        -25.91588020324707,
        -217.74974060058594
      ],
      "type": "VEC3"
    },
    {
      "bufferView": 2,
      "byteOffset": 21804,
      "componentType": 5126,
      "count": 1817,
      "max": [
        0.9980440735816956,
        0.9999277591705322,
        0.9983429908752441
      ],
      "min": [
        -0.9953528046607971,
        -0.9999920129776001,
        -0.9999897480010986
      ],
      "type": "VEC3"
    },
    {
      "bufferView": 3,
      "componentType": 5126,
      "count": 1817,
      "max": [
        0.9992035627365112,
        0.9994262456893921,
        0.9952726364135742,
        1.0
      ],
      "min": [
        -0.9992426633834839,
        -0.9989596605300903,
        -0.9986873865127563,
        -1.0
      ],
      "type": "VEC4"
    },
    {
      "bufferView": 1,
      "componentType": 5126,
      "count": 1817,
      "max": [
        1.0,
        4.5
      ],
      "min": [
        0.0,
        -3.5
      ],
      "type": "VEC2"
    },
    {
      "bufferView": 1,
      "byteOffset": 14536,
      "componentType": 5126,
      "count": 1817,
      "max": [
        1.0,
        4.5
      ],
      "min": [
        0.0,
        -3.5
      ],
      "type": "VEC2"
    },
    {
      "bufferView": 1,
      "byteOffset": 29072,
      "componentType": 5126,
      "count": 1817,
      "max": [
        1.0,
        4.5
      ],
      "min": [
        0.0,
        -3.5
      ],
      "type": "VEC2"
    },
    {
      "bufferView": 0,
      "componentType": 5125,
      "count": 7596,
      "type": "SCALAR"
    },
    {
      "bufferView": 2,
      "byteOffset": 43608,
      "componentType": 5126,
      "count": 735,
      "max": [
        218.5426788330078,
        309.1044006347656,
        264.7371520996094
      ],
      "min": [
        -220.26422119140625,
        -20.83568000793457,
        -261.322265625
      ],
      "type": "VEC3"
    },
    {
      "bufferView": 2,
      "byteOffset": 52428,
      "componentType": 5126,
      "count": 735,
      "max": [
        0.9946814775466919,
        0.999777615070343,
        0.9982430934906006
      ],
      "min": [
        -0.9916118383407593,
        -0.9227334856987,
        -0.9992839097976685
      ],
      "type": "VEC3"
    },
    {
      "bufferView": 3,
      "byteOffset": 29072,
      "componentType": 5126,
      "count": 735,
      "max": [
        0.9986811280250549,
        0.6577634811401367,
        0.9972690343856812,
        1.0
      ],
      "min": [
        -0.9981756806373596,
        -0.8526920676231384,
        -0.9997361302375793,
        1.0
      ],
      "type": "VEC4"
    },
    {
      "bufferView": 1,
      "byteOffset": 43608,
      "componentType": 5126,
      "count": 735,
      "max": [
        0.9946175813674927,
        0.9664708971977234
      ],
      "min": [
        0.04416961222887039,
        0.003904104232788086
      ],
      "type": "VEC2"
    },
    {
      "bufferView": 1,
      "byteOffset": 49488,
      "componentType": 5126,
      "count": 735,
      "max": [
        0.9946175813674927,
        0.9664708971977234
      ],
      "min": [
        0.04416961222887039,
        0.003904104232788086
      ],
      "type": "VEC2"
    },
    {
      "bufferView": 1,
      "byteOffset": 55368,
      "componentType": 5126,
      "count": 735,
      "max": [
        0.9946175813674927,
        0.9664708971977234
      ],
      "min": [
        0.04416961222887039,
        0.003904104232788086
      ],
      "type": "VEC2"
    },
    {
      "bufferView": 1,
      "byteOffset": 61248,
      "componentType": 5126,
      "count": 735,
      "max": [
        0.9946175813674927,
        0.9664708971977234
      ],
      "min": [
        0.04416961222887039,
        0.003904104232788086
      ],
      "type": "VEC2"
    },
    {
      "bufferView": 1,
      "byteOffset": 67128,
      "componentType": 5126,
      "count": 735,
      "max": [
        0.9946175813674927,
        0.9664708971977234
      ],
      "min": [
        0.04416961222887039,
        0.003904104232788086
      ],
      "type": "VEC2"
    },
    {
      "bufferView": 0,
      "byteOffset": 30384,
      "componentType": 5125,
      "count": 2352,
      "type": "SCALAR"
    }
  ],
  "asset": {
    "extras": {
      "author": "DJMaesen (https://sketchfab.com/bumstrum)",
      "license": "CC-BY-4.0 (http://creativecommons.org/licenses/by/4.0/)",
      "source": "https://sketchfab.com/3d-models/tree-a2a6237a270840e198cc7db1c47f1ef7",
      "title": "Tree"
    },
    "generator": "Sketchfab-12.66.0",
    "version": "2.0"
  },
  "bufferViews": [
    {
      "buffer": 0,
      "byteLength": 39792,
      "name": "floatBufferViews",
      "target": 34963
    },
    {
      "buffer": 0,
      "byteLength": 73008,
      "byteOffset": 39792,
      "byteStride": 8,
      "name": "floatBufferViews",
      "target": 34962
    },
    {
      "buffer": 0,
      "byteLength": 61248,
      "byteOffset": 112800,
      "byteStride": 12,
      "name": "floatBufferViews",
      "target": 34962
    },
    {
      "buffer": 0,
      "byteLength": 40832,
      "byteOffset": 174048,
      "byteStride": 16,
      "name": "floatBufferViews",
      "target": 34962
    }
  ],
  "buffers": [
    {
      "byteLength": 214880,
      "uri": "scene.bin"
    }
  ],
  "extensionsRequired": [
    "KHR_materials_pbrSpecularGlossiness"
  ],
  "extensionsUsed": [
    "KHR_materials_pbrSpecularGlossiness"
  ],
  "images": [
    {
      "uri": "textures/bark_diffuse.png"
    },
    {
      "uri": "textures/bark_specularGlossiness.png"
    },
    {
      "uri": "textures/bark_normal.png"
    },
    {
      "uri": "textures/bark_occlusion.png"
    },
    {
      "uri": "textures/leaves_diffuse.png"
    },
    {
      "uri": "textures/leaves_specularGlossiness.png"
    },
    {
      "uri": "textures/leaves_normal.png"
    }
  ],
  "materials": [
    {
      "extensions": {
        "KHR_materials_pbrSpecularGlossiness": {
          "diffuseFactor": [
            1.0,
            1.0,
            1.0,
            1.0
          ],
          "diffuseTexture": {
            "index": 0
          },
          "glossinessFactor": 1.0,
          "specularFactor": [
            1.0,
            1.0,
            1.0
          ],
          "specularGlossinessTexture": {
            "index": 1
          }
        }
      },
      "name": "bark",
      "normalTexture": {
        "index": 2
      },
      "occlusionTexture": {
        "index": 3
      }
    },
    {
      "alphaCutoff": 0.12976371951219512,
      "alphaMode": "MASK",
      "doubleSided": true,
      "extensions": {
        "KHR_materials_pbrSpecularGlossiness": {
          "diffuseFactor": [
            1.0,
            1.0,
            1.0,
            1.0
          ],
          "diffuseTexture": {
            "index": 4
          },
          "glossinessFactor": 1.0,
          "specularFactor": [
            1.0,
            1.0,
            1.0
          ],
          "specularGlossinessTexture": {
            "index": 5
          }
        }
      },
      "name": "leaves",
      "normalTexture": {
        "index": 6
      }
    }
  ],
  "meshes": [
    {
      "name": "tree_bark_0",
      "primitives": [
        {
          "attributes": {
            "NORMAL": 1,
            "POSITION": 0,
            "TANGENT": 2,
            "TEXCOORD_0": 3,
            "TEXCOORD_1": 4,
            "TEXCOORD_2": 5
          },
          "indices": 6,
          "material": 0,
          "mode": 4
        }
      ]
    },
    {
      "name": "leaves_leaves_0",
      "primitives": [
        {
          "attributes": {
            "NORMAL": 8,
            "POSITION": 7,
            "TANGENT": 9,
            "TEXCOORD_0": 10,
            "TEXCOORD_1": 11,
            "TEXCOORD_2": 12,
            "TEXCOORD_3": 13,
            "TEXCOORD_4": 14
          },
          "indices": 15,
          "material": 1,
          "mode": 4
        }
      ]
    }
  ],
  "nodes": [
    {
      "children": [
        1
      ],
      "matrix": [
        1.0,
        0.0,
        0.0,
        0.0,
        0.0,
        2.220446049250313e-16,
        -1.0,
        0.0,
        0.0,
        1.0,
        2.220446049250313e-16,
        0.0,
        0.0,
        0.0,
        0.0,
        1.0
      ],
      "name": "Sketchfab_model"
    },
    {
      "children": [
        2
      ],
      "matrix": [
        1.0,
        0.0,
        0.0,
        0.0,
        0.0,
        0.0,
        1.0,
        0.0,
        0.0,
        -1.0,
        0.0,
        0.0,
        0.0,
        0.0,
        0.0,
        1.0
      ],
      "name": "92fb353c74d642f4a8ddfd7a6fdb1976.fbx"
    },
    {
      "children": [
        3
      ],
      "name": "RootNode"
    },
    {
      "children": [
        4,
        5
      ],
      "name": "tree"
    },
    {
      "mesh": 0,
      "name": "tree_bark_0"
    },
    {
      "children": [
        6
      ],
      "matrix": [
        1.0,
        0.0,
        0.0,
        0.0,
        0.0,
        1.0,
        0.0,
        0.0,
        0.0,
        0.0,
        1.0,
        0.0,
        20.473453521728516,
        228.6634979248047,
        -23.066381454467773,
        1.0
      ],
      "name": "leaves"
    },
    {
      "mesh": 1,
      "name": "leaves_leaves_0"
    }
  ],
  "samplers": [
    {
      "magFilter": 9729,
      "minFilter": 9987,
      "wrapS": 10497,
      "wrapT": 10497
    }
  ],
  "scene": 0,
  "scenes": [
    {
      "name": "Sketchfab_Scene",
      "nodes": [
        0
      ]
    }
  ],
  "textures": [
    {
      "sampler": 0,
      "source": 0
    },
    {
      "sampler": 0,
      "source": 1
    },
    {
      "sampler": 0,
      "source": 2
    },
    {
      "sampler": 0,
      "source": 3
    },
    {
      "sampler": 0,
      "source": 4
    },
    {
      "sampler": 0,
      "source": 5
    },
    {
      "sampler": 0,
      "source": 6
    }
  ]
}
